<?xml version="1.0" standalone="no"?>
<!DOCTYPE svg PUBLIC "-//W3C//DTD SVG 20010904//EN"
 "http://www.w3.org/TR/2001/REC-SVG-20010904/DTD/svg10.dtd">
<svg version="1.0" xmlns="http://www.w3.org/2000/svg"
 width="1244.000000pt" height="1280.000000pt" viewBox="0 0 1244.000000 1280.000000"
 preserveAspectRatio="xMidYMid meet">
<metadata>
Created by potrace 1.15, written by Peter Selinger 2001-2017
</metadata>
<g transform="translate(0.000000,1280.000000) scale(0.100000,-0.100000)"
fill="#000000" stroke="none">
<path d="M6316 12775 c-36 -172 -49 -1140 -36 -2595 16 -1692 11 -1880 -56
-2545 -24 -234 -34 -300 -34 -228 0 141 -53 740 -145 1628 -30 292 -71 701
-90 910 -84 899 -104 1057 -246 1915 -84 509 -138 802 -150 815 -14 14 -11
-203 6 -438 31 -438 70 -828 145 -1472 27 -231 54 -463 60 -515 6 -52 33 -293
61 -535 120 -1060 124 -1104 164 -1575 24 -279 59 -777 70 -975 l4 -90 -14
105 c-97 695 -150 1033 -235 1505 -64 356 -153 869 -185 1075 -113 714 -143
872 -290 1515 -141 620 -235 1004 -272 1115 -25 77 -28 82 -31 50 -6 -60 36
-384 113 -875 50 -313 35 -230 441 -2420 120 -644 221 -1262 289 -1768 20
-148 42 -307 50 -355 8 -47 13 -88 11 -90 -2 -1 -18 25 -36 60 -18 35 -56 108
-85 163 -45 83 -63 136 -110 310 -247 922 -364 1324 -513 1760 -319 928 -529
1500 -687 1870 -201 471 -554 1161 -779 1522 -105 171 -96 134 53 -200 56
-125 127 -278 158 -340 311 -620 560 -1209 797 -1885 137 -390 201 -586 612
-1882 76 -237 172 -525 220 -657 18 -51 31 -93 29 -93 -5 0 -222 418 -252 485
-12 28 -65 151 -117 275 -87 208 -451 1015 -631 1400 -279 597 -580 1136 -928
1662 -140 212 -325 475 -377 538 l-21 25 7 -25 c14 -53 173 -336 427 -760 371
-621 650 -1158 925 -1780 28 -63 82 -186 121 -272 38 -87 67 -158 65 -158 -2
0 -25 33 -51 73 -63 99 -367 545 -597 877 -105 151 -304 446 -443 655 -139
209 -253 372 -253 363 0 -19 260 -536 515 -1023 194 -371 745 -1445 745 -1453
0 -2 -60 89 -133 204 -74 115 -199 308 -279 429 -79 121 -184 281 -233 355
-101 155 -323 480 -404 590 -294 402 -983 1300 -997 1300 -24 0 369 -619 638
-1005 57 -82 199 -285 315 -450 634 -904 949 -1377 1195 -1795 75 -128 106
-181 197 -343 71 -127 180 -334 331 -632 95 -187 212 -410 260 -495 47 -85
114 -218 149 -295 94 -213 165 -302 233 -293 21 4 29 -2 41 -28 30 -61 127
-66 194 -10 23 19 33 22 53 14 39 -15 103 0 156 35 27 17 117 97 199 177 83
81 278 265 435 410 502 466 768 742 1385 1440 372 420 623 754 892 1185 142
229 303 518 303 546 0 28 -195 -237 -435 -590 -418 -615 -774 -1032 -1645
-1926 -113 -115 -268 -275 -345 -355 -77 -80 -133 -134 -124 -120 31 49 505
830 704 1160 320 532 434 741 798 1475 188 379 473 953 634 1274 161 322 291
587 289 588 -8 9 -290 -435 -766 -1207 -161 -261 -395 -637 -520 -835 -125
-198 -290 -461 -367 -585 -77 -124 -206 -328 -288 -455 -82 -126 -303 -472
-491 -767 -326 -510 -504 -780 -504 -764 0 4 33 134 74 289 167 631 206 799
476 2027 39 179 105 470 146 648 159 696 248 1187 368 2032 40 287 46 340 36
340 -32 0 -265 -975 -444 -1855 -111 -549 -310 -1502 -361 -1730 -85 -380
-156 -690 -160 -700 -8 -15 1 44 34 235 17 96 73 463 126 815 53 352 130 854
171 1115 133 842 153 997 219 1720 25 282 59 695 71 878 28 419 -159 -541
-286 -1473 -28 -203 -71 -512 -95 -685 -25 -173 -70 -495 -101 -715 -91 -662
-123 -888 -165 -1145 -22 -135 -56 -344 -75 -465 -52 -320 -125 -696 -119
-610 35 513 32 704 -35 1740 -17 263 -40 692 -40 760 0 14 -3 16 -9 7 -4 -7
-6 231 -3 530 3 342 0 626 -7 768 -6 124 -18 356 -26 515 -32 618 -60 1031
-74 1069 -8 19 -9 19 -15 -9z"/>
<path d="M2148 11324 c11 -21 245 -315 326 -409 28 -33 134 -157 237 -275 690
-799 1044 -1298 2069 -2910 79 -124 190 -296 246 -382 57 -87 102 -158 100
-158 -2 0 -64 84 -137 188 -165 234 -403 548 -674 892 -115 146 -312 402 -439
570 -242 322 -336 438 -557 690 -312 357 -721 790 -727 771 -14 -43 320 -491
972 -1306 264 -330 533 -665 596 -745 224 -279 697 -907 724 -960 4 -8 -8 1
-26 21 -195 211 -515 541 -675 694 -109 105 -366 357 -573 560 -485 479 -583
572 -770 735 -370 323 -883 740 -896 728 -8 -9 74 -106 231 -272 186 -196 333
-340 800 -781 1082 -1021 1295 -1230 1705 -1668 184 -197 312 -312 439 -395
36 -25 113 -91 171 -147 136 -133 220 -197 220 -167 0 5 -22 46 -49 90 -27 45
-48 82 -46 82 2 0 29 -37 61 -82 97 -141 226 -309 231 -304 7 7 -47 104 -295
531 -552 950 -709 1202 -1095 1760 -42 61 -124 182 -184 270 -593 876 -971
1354 -1561 1978 -185 194 -383 389 -420 411 -11 7 -12 4 -4 -10z"/>
<path d="M2241 9523 c120 -157 430 -466 1179 -1173 668 -632 903 -863 1279
-1258 194 -203 275 -276 405 -361 74 -48 106 -61 106 -43 0 40 -674 761 -1026
1097 -115 109 -373 362 -574 560 -383 379 -561 541 -927 844 -345 285 -487
393 -442 334z"/>
<path d="M10325 9266 c-130 -89 -564 -464 -870 -751 -115 -109 -325 -304 -465
-434 -140 -129 -349 -323 -465 -431 -115 -108 -280 -256 -365 -330 -85 -74
-209 -182 -275 -240 -66 -58 -203 -174 -305 -257 -287 -234 -430 -372 -539
-516 -23 -30 -67 -75 -98 -98 -79 -59 -202 -178 -219 -211 -13 -25 -13 -28 2
-28 30 0 263 134 739 423 321 196 1988 1307 2205 1471 362 273 940 745 940
768 0 38 -633 -363 -1156 -734 -159 -113 -370 -260 -469 -328 -99 -68 -313
-217 -475 -330 -358 -251 -926 -624 -1045 -688 -21 -11 12 18 115 99 205 162
361 297 825 714 259 232 594 532 745 666 336 297 648 610 1073 1074 183 199
202 229 102 161z"/>
<path d="M1506 9271 c40 -36 305 -203 584 -366 713 -417 1132 -733 2290 -1725
222 -190 357 -301 508 -419 79 -61 141 -111 138 -111 -7 0 -446 228 -649 337
-533 285 -966 484 -1587 730 -262 104 -383 151 -920 356 -151 58 -363 143
-470 187 -271 114 -392 162 -396 157 -12 -12 136 -94 1146 -637 1459 -786
2674 -1459 3076 -1706 87 -53 211 -129 274 -167 215 -132 306 -161 362 -117
62 48 61 133 -3 229 -76 115 -312 322 -516 454 -73 48 -158 120 -310 264 -652
618 -778 728 -1403 1219 -677 532 -931 709 -1400 971 -326 183 -788 402 -724
344z"/>
<path d="M9840 9023 c-131 -89 -535 -442 -930 -813 -85 -80 -245 -229 -355
-330 -110 -102 -270 -250 -355 -330 -235 -220 -631 -565 -860 -750 -261 -211
-457 -409 -503 -508 -29 -63 19 -34 258 156 427 340 658 535 970 822 99 91
284 257 410 369 492 436 581 519 832 778 331 341 573 603 573 618 0 10 -16 5
-40 -12z"/>
<path d="M676 6981 c20 -19 314 -115 709 -231 116 -34 261 -77 324 -96 183
-55 416 -111 721 -174 320 -66 529 -112 930 -205 278 -64 695 -149 893 -181
59 -9 106 -19 103 -21 -6 -6 -269 24 -641 73 -307 40 -928 139 -1730 274 -358
61 -711 114 -938 140 -181 22 -436 37 -426 26 15 -16 339 -98 794 -200 453
-102 642 -135 1110 -196 88 -11 394 -56 680 -100 664 -101 675 -102 1085 -144
618 -63 820 -77 820 -58 0 16 -51 41 -150 74 -60 20 -73 27 -45 24 152 -18
178 -19 174 -5 -7 21 -140 85 -264 125 -130 42 -200 57 -570 123 -293 52 -805
155 -1060 215 -82 19 -312 73 -510 121 -198 47 -436 104 -530 126 -93 22 -282
67 -418 100 -514 123 -1103 229 -1061 190z"/>
<path d="M11070 6894 c-440 -66 -1012 -172 -1245 -230 -55 -14 -207 -54 -337
-90 -131 -35 -363 -93 -515 -129 -520 -122 -1088 -280 -1509 -420 -174 -58
-220 -81 -204 -101 10 -11 42 -14 145 -14 149 0 232 12 473 71 521 125 985
220 1687 344 513 90 1229 226 1373 261 204 48 372 95 372 103 0 30 -1108 -101
-1430 -169 -25 -5 -112 -23 -193 -41 -82 -17 -150 -29 -152 -27 -2 2 130 34
293 72 661 151 1272 312 1405 370 l32 14 -50 0 c-27 0 -93 -6 -145 -14z
m-1553 -450 c-3 -3 -12 -4 -19 -1 -8 3 -5 6 6 6 11 1 17 -2 13 -5z m-40 -10
c-3 -3 -12 -4 -19 -1 -8 3 -5 6 6 6 11 1 17 -2 13 -5z"/>
<path d="M7955 5859 c-647 -13 -1110 -48 -1078 -80 11 -11 190 -49 236 -50 27
0 29 -2 12 -9 -11 -5 -128 -9 -260 -9 -132 -1 -271 -6 -310 -11 -160 -23 -245
-73 -245 -144 0 -31 6 -40 41 -65 61 -44 99 -52 754 -140 490 -67 2101 -332
3310 -546 1382 -244 1970 -345 2004 -345 39 1 -31 22 -314 95 -165 42 -534
144 -820 225 -1539 439 -1927 533 -2959 720 -214 38 -392 72 -395 75 -3 4 24
4 59 1 36 -4 169 -11 295 -16 247 -12 756 -52 1265 -100 892 -86 1379 -122
1695 -126 200 -3 305 -2 295 5 -31 19 -412 86 -855 150 -447 64 -688 88 -1150
111 -115 6 -336 22 -490 35 -525 45 -987 73 -1240 76 -106 1 -119 3 -72 9 115
15 833 21 1327 11 1738 -34 1823 -35 2121 -23 458 19 466 30 54 72 -275 27
-677 57 -935 69 -266 13 -1882 19 -2345 10z"/>
<path d="M4340 5653 c-216 -22 -465 -44 -595 -53 -88 -6 -225 -15 -305 -20
-154 -11 -655 -30 -1420 -55 -626 -20 -1237 -67 -1255 -95 -22 -35 1176 -53
1602 -24 128 8 245 14 260 12 16 -2 -98 -13 -252 -26 -722 -60 -868 -73 -1091
-101 -264 -34 -468 -66 -491 -79 -30 -17 163 -21 576 -12 513 12 633 20 1136
75 220 25 517 56 660 70 596 58 973 107 1470 190 236 39 260 47 245 74 -11 21
-29 27 -140 41 -71 9 -324 11 -400 3z m-1627 -230 c-7 -2 -21 -2 -30 0 -10 3
-4 5 12 5 17 0 24 -2 18 -5z"/>
<path d="M5220 5514 c-163 -44 -616 -186 -1095 -344 -513 -170 -596 -199
-1190 -420 -77 -29 -277 -99 -445 -157 -430 -147 -576 -200 -900 -328 -525
-207 -1323 -555 -1308 -571 17 -16 667 193 1083 348 132 50 366 136 520 193
154 56 478 177 720 268 617 232 1433 522 1441 514 2 -2 -67 -32 -154 -67 -233
-94 -533 -223 -937 -402 -198 -89 -497 -218 -665 -288 -525 -219 -683 -291
-1170 -527 -416 -202 -1110 -568 -1110 -585 0 -11 235 73 495 177 309 123 820
348 1991 878 795 360 1251 554 2114 899 331 133 414 172 590 277 143 87 200
131 166 131 -15 0 -16 3 -6 15 11 13 8 15 -16 14 -16 0 -72 -12 -124 -25z"/>
<path d="M5786 5445 c-80 -33 -238 -140 -354 -240 -109 -93 -195 -185 -367
-395 -66 -80 -199 -237 -295 -350 -499 -579 -726 -889 -1305 -1772 -159 -244
-360 -544 -447 -667 -87 -123 -155 -227 -152 -230 8 -8 69 59 422 469 168 195
369 427 447 515 77 88 228 261 335 385 243 281 1088 1231 1321 1485 95 105
239 258 319 340 221 227 271 285 292 332 24 55 17 94 -24 128 -40 33 -111 33
-192 0z"/>
<path d="M6679 5356 c32 -38 297 -152 446 -191 39 -11 93 -33 120 -50 152 -96
240 -135 570 -255 426 -154 861 -337 1924 -810 443 -197 869 -384 945 -415
266 -109 620 -234 632 -223 13 14 -353 215 -816 447 -353 178 -516 252 -880
401 -151 61 -403 167 -560 235 -574 248 -1138 477 -1233 500 -15 4 -26 10 -23
12 15 15 672 -156 1596 -415 195 -55 409 -114 475 -132 66 -17 197 -53 290
-80 359 -103 774 -202 1037 -249 135 -24 131 -24 123 -12 -19 31 -884 333
-1365 477 -101 31 -364 100 -585 154 -220 55 -483 122 -585 150 -427 118 -609
165 -865 225 -494 116 -1046 228 -1195 242 -61 6 -64 5 -51 -11z"/>
<path d="M5194 5306 c-397 -194 -1395 -781 -2189 -1286 -170 -108 -411 -257
-535 -330 -507 -300 -834 -513 -1375 -892 -492 -345 -744 -531 -745 -551 -2
-41 1115 631 1910 1148 582 379 1458 923 1953 1212 652 381 758 445 869 530
107 82 238 200 238 214 0 15 -14 11 -126 -45z"/>
<path d="M6125 5335 c-22 -8 -41 -15 -42 -15 -1 0 -10 -14 -19 -31 -32 -63 0
-124 146 -274 43 -44 81 -91 85 -105 11 -39 159 -358 250 -540 78 -156 242
-462 525 -980 561 -1028 803 -1557 1063 -2325 137 -405 242 -683 254 -671 7 7
-30 181 -87 401 -103 402 -268 885 -425 1245 -117 267 -551 1154 -715 1460
-122 228 -412 720 -640 1085 -149 238 -191 308 -187 311 2 2 31 -25 64 -59 47
-48 86 -107 172 -260 137 -243 178 -311 451 -747 781 -1244 1002 -1651 1314
-2424 133 -328 262 -613 273 -602 18 18 -144 516 -282 866 -130 330 -299 682
-498 1035 -168 300 -499 870 -573 988 -40 64 -71 117 -69 117 4 0 346 -477
501 -700 350 -500 563 -859 837 -1410 218 -438 352 -688 363 -678 5 5 -55 171
-124 343 -172 430 -349 788 -578 1173 -120 200 -743 1141 -883 1332 l-92 125
107 -110 c130 -134 890 -950 1293 -1390 428 -466 682 -735 693 -735 7 0 7 4 0
13 -65 82 -353 479 -562 777 -645 917 -801 1125 -1089 1455 -57 66 -127 144
-155 174 -77 82 -23 37 307 -255 764 -678 1113 -1034 1562 -1594 104 -129 234
-286 289 -349 56 -62 112 -126 126 -142 14 -16 29 -29 34 -29 30 0 -328 518
-532 769 -372 459 -524 614 -1347 1386 -283 265 -443 402 -780 669 -125 99
-249 208 -330 291 -127 129 -223 208 -355 292 -85 54 -196 109 -240 118 -19 3
-42 8 -50 10 -8 2 -33 -2 -55 -10z"/>
<path d="M5278 5249 c-415 -275 -1270 -908 -1938 -1435 -195 -154 -485 -378
-645 -499 -559 -422 -1030 -815 -1620 -1351 -217 -197 -275 -254 -258 -254 18
0 568 387 718 505 173 136 875 694 1315 1045 1034 823 1208 958 1875 1445 339
247 419 312 557 453 195 198 194 221 -4 91z"/>
<path d="M6581 5242 c18 -45 608 -528 1104 -902 505 -381 1125 -860 1360
-1049 510 -412 952 -813 1342 -1217 191 -198 561 -554 585 -563 19 -7 -52 86
-186 243 -386 452 -817 887 -1236 1252 -226 196 -343 292 -1115 915 -180 145
-435 340 -595 455 -134 96 -588 416 -657 462 -66 44 -87 68 -30 34 78 -49 380
-207 712 -374 1330 -669 1692 -883 2430 -1433 220 -165 494 -355 511 -355 34
0 -363 350 -636 561 -416 322 -643 466 -1347 857 -620 345 -812 445 -1133 589
-357 161 -817 366 -863 384 -27 11 -74 37 -105 58 -96 64 -144 93 -141 83z"/>
<path d="M6972 5118 c7 -21 185 -135 293 -188 55 -27 197 -85 315 -128 540
-201 950 -375 2246 -952 274 -123 341 -150 579 -240 456 -172 467 -163 66 52
-263 141 -685 352 -867 434 -79 35 -278 119 -442 185 -163 67 -441 184 -617
261 -449 196 -953 392 -1352 524 -198 66 -228 73 -221 52z"/>
<path d="M5525 4748 c-129 -118 -253 -287 -470 -643 -248 -406 -668 -1023
-1320 -1940 -273 -384 -529 -772 -654 -990 -57 -100 -66 -132 -25 -94 66 61
695 845 829 1034 39 55 193 282 341 505 149 223 351 522 449 665 232 337 345
510 480 732 60 100 111 180 113 179 11 -12 -452 -844 -658 -1181 -67 -110
-194 -321 -283 -470 -88 -148 -194 -324 -235 -390 -232 -370 -486 -814 -625
-1090 -118 -236 -115 -254 14 -77 222 302 556 791 679 991 45 74 166 281 268
460 102 179 283 493 402 696 313 533 319 544 531 950 233 448 329 646 329 682
0 27 -1 26 -51 -22 -27 -28 -69 -75 -92 -105 -72 -96 -73 -95 -8 18 23 40 49
88 57 107 21 52 -2 46 -71 -17z"/>
<path d="M5929 4488 c-7 -13 -23 -54 -36 -93 -22 -66 -24 -59 -8 27 6 30 4 39
-10 44 -22 9 -35 -6 -84 -92 -63 -112 -135 -294 -190 -481 -125 -423 -156
-524 -239 -778 -81 -245 -224 -647 -531 -1500 -180 -498 -333 -996 -318 -1037
6 -18 101 186 289 621 172 398 240 580 373 1004 25 82 48 147 50 145 4 -4 -33
-132 -185 -628 -131 -428 -163 -540 -233 -825 -76 -304 -92 -385 -78 -385 17
0 88 181 301 765 119 326 162 463 236 740 25 93 122 438 216 765 168 588 220
791 299 1144 40 182 53 231 44 166 -12 -91 -26 -234 -40 -435 -38 -526 -120
-1205 -294 -2440 -78 -550 -134 -1205 -103 -1205 17 0 64 217 191 880 75 393
97 539 136 920 14 135 52 461 85 725 102 822 142 1271 157 1768 6 210 2 240
-28 185z"/>
<path d="M6374 4283 c24 -133 99 -394 182 -631 268 -764 352 -1034 405 -1297
32 -160 57 -357 69 -540 11 -172 22 -281 40 -390 5 -33 10 -62 10 -65 0 -3 5
2 10 10 16 28 32 349 25 505 -16 375 -52 561 -220 1140 -112 388 -155 504
-345 935 -121 273 -167 370 -176 370 -4 0 -3 -17 0 -37z"/>
<path d="M6083 4054 c7 -268 13 -338 81 -876 81 -637 98 -831 103 -1171 6
-384 -2 -504 -66 -942 -36 -248 -51 -452 -32 -440 29 17 138 431 176 665 64
397 68 655 20 1355 -32 473 -49 595 -156 1125 -128 631 -135 648 -126 284z"/>
<path d="M6344 4178 c3 -24 8 -70 11 -103 12 -125 61 -400 108 -605 278 -1213
302 -1403 273 -2145 -9 -222 -3 -357 14 -339 17 19 61 265 82 459 19 176 16
636 -5 798 -27 199 -125 778 -157 927 -40 183 -149 553 -276 943 -37 110 -59
140 -50 65z"/>
</g>
</svg>
