<?xml version="1.0" standalone="no"?>
<!DOCTYPE svg PUBLIC "-//W3C//DTD SVG 20010904//EN"
 "http://www.w3.org/TR/2001/REC-SVG-20010904/DTD/svg10.dtd">
<svg version="1.0" xmlns="http://www.w3.org/2000/svg"
 width="1143.000000pt" height="1280.000000pt" viewBox="0 0 1143.000000 1280.000000"
 preserveAspectRatio="xMidYMid meet">
<metadata>
Created by potrace 1.15, written by Peter Selinger 2001-2017
</metadata>
<g transform="translate(0.000000,1280.000000) scale(0.100000,-0.100000)"
fill="#000000" stroke="none">
<path d="M4560 12786 c0 -7 173 -928 186 -990 4 -18 2 -26 -4 -22 -30 18
-1014 342 -997 328 12 -9 190 -156 398 -326 207 -169 377 -311 377 -315 0 -4
-786 -315 -964 -381 -16 -6 -27 -12 -25 -13 2 -1 234 0 514 4 281 4 511 5 513
4 1 -1 -112 -212 -253 -469 -140 -257 -255 -469 -255 -471 0 -3 159 132 352
300 194 167 354 302 355 301 2 -2 -11 -43 -28 -92 -64 -185 -183 -376 -359
-578 -168 -193 -294 -437 -340 -658 -6 -33 -17 -58 -24 -58 -7 0 -53 9 -102
19 -351 75 -812 94 -1110 46 -195 -31 -344 -78 -495 -156 l-77 -40 -21 -87
c-12 -48 -39 -154 -60 -237 -107 -411 -162 -625 -255 -985 -24 -96 -63 -246
-85 -332 -23 -87 -59 -228 -81 -313 -22 -85 -58 -225 -80 -310 -22 -85 -58
-225 -80 -310 -22 -85 -58 -225 -80 -310 -22 -85 -58 -225 -80 -310 -22 -85
-58 -225 -80 -310 -22 -85 -58 -225 -80 -310 -22 -85 -58 -225 -80 -310 -22
-85 -58 -225 -80 -310 -90 -350 -121 -469 -165 -640 -26 -99 -75 -290 -110
-425 -34 -135 -90 -351 -124 -480 -89 -344 -178 -690 -208 -811 l-26 -105 45
-70 c98 -152 250 -299 457 -444 59 -41 118 -83 131 -93 l25 -17 -30 14 c-17 8
-36 10 -45 6 -8 -5 -64 -32 -125 -61 -142 -68 -225 -145 -250 -233 -29 -99 3
-181 105 -266 234 -194 903 -330 1630 -330 542 0 1028 69 1376 195 172 62 291
142 343 230 l20 35 -22 1 c-12 0 13 11 57 24 43 13 82 27 86 32 5 4 49 168 99
363 110 434 212 829 501 1945 122 473 258 997 301 1165 43 168 115 447 160
620 45 173 105 407 134 520 65 252 159 617 220 850 25 96 77 299 116 450 39
151 83 325 99 385 16 61 56 217 90 348 l61 238 -31 39 c-76 96 -318 305 -502
433 -292 204 -705 408 -1058 522 -47 15 -88 30 -92 34 -11 9 17 205 48 333 42
178 98 323 203 531 115 226 151 320 198 522 19 83 36 151 37 152 1 1 48 -233
106 -520 74 -371 106 -514 111 -497 4 14 43 241 85 505 42 264 78 481 79 483
1 1 186 -144 411 -324 225 -180 415 -332 423 -338 18 -14 40 -52 -262 454
l-255 425 82 6 c44 4 178 8 297 10 l217 3 446 -484 c246 -267 443 -486 439
-487 -4 -1 -316 -75 -693 -163 -377 -89 -689 -163 -695 -164 -21 -7 41 -16
670 -96 358 -45 660 -85 672 -88 20 -6 -18 -61 -408 -582 -236 -316 -429 -576
-429 -578 0 -5 24 10 600 381 311 200 566 363 568 361 3 -2 81 -1337 82 -1404
0 -25 3 -31 9 -20 5 8 98 301 206 650 109 349 200 641 204 648 5 8 17 1 41
-23 l35 -36 -1 -167 c0 -185 -12 -259 -69 -462 -67 -235 -78 -308 -79 -495 -1
-155 15 -293 40 -359 4 -9 -25 -20 -111 -40 -502 -119 -951 -329 -1236 -579
-78 -69 -172 -173 -212 -237 -17 -27 -29 44 183 -1130 38 -212 175 -977 305
-1700 130 -723 256 -1425 280 -1560 54 -297 136 -761 165 -925 42 -243 32
-221 112 -272 38 -25 107 -62 151 -84 87 -40 101 -53 22 -19 -65 28 -65 25 -4
-17 223 -153 591 -248 1184 -307 28 -3 163 -8 300 -12 555 -15 1120 57 1488
190 322 117 455 282 367 456 -32 62 -174 179 -202 165 -16 -8 8 10 157 114
150 106 335 252 335 266 0 11 -65 376 -121 680 -5 28 -18 102 -29 165 -23 133
-38 217 -50 280 -5 25 -14 74 -20 110 -6 36 -15 85 -20 110 -13 68 -25 135
-90 500 -33 184 -64 360 -70 390 -6 30 -37 206 -70 390 -58 327 -72 403 -91
505 -5 28 -32 176 -59 330 -48 268 -60 339 -81 450 -5 28 -23 127 -39 220 -33
188 -47 267 -60 335 -13 69 -25 135 -100 555 -38 215 -74 413 -80 441 l-11 52
-92 35 c-345 132 -664 195 -1090 218 -200 10 -487 1 -681 -21 -49 -6 -93 -7
-97 -3 -11 12 -58 167 -78 262 -51 231 -62 370 -48 600 7 134 7 221 -1 324 -6
77 -10 142 -9 143 1 2 179 -185 395 -415 216 -230 404 -429 417 -441 19 -18
-228 588 -501 1229 l-14 34 67 -7 c134 -14 1329 -156 1351 -161 12 -3 22 -3
22 -1 0 2 -277 147 -615 322 -338 175 -615 320 -615 323 1 3 164 112 363 242
764 500 839 549 826 549 -11 0 -198 -42 -1009 -225 -179 -40 -327 -72 -329
-69 -2 2 87 307 198 677 111 369 205 681 208 692 3 11 -183 -227 -414 -530
-230 -302 -423 -549 -428 -548 -5 1 -136 298 -292 660 -176 411 -283 647 -283
628 0 -16 14 -311 30 -655 16 -344 30 -644 30 -667 l0 -42 -577 291 c-318 160
-582 295 -587 299 -6 5 52 9 131 9 77 0 168 3 203 7 l62 6 -138 48 c-282 96
-809 281 -821 287 -7 4 151 150 387 357 219 192 397 351 395 353 -2 2 -122
-41 -267 -96 -145 -56 -357 -137 -473 -180 -115 -44 -211 -77 -213 -73 -1 4
33 241 77 527 44 285 78 520 77 522 -2 1 -115 -198 -252 -443 -136 -245 -251
-445 -254 -445 -3 0 -30 42 -61 93 -264 436 -499 819 -499 813z"/>
</g>
</svg>
